<svg xmlns="http://www.w3.org/2000/svg" viewBox="0 0 1200 540" role="img" aria-label="Story roadmap flow chart">
  <defs>
    <linearGradient id="bg" x1="0" y1="0" x2="1" y2="1">
      <stop offset="0%" stop-color="#142542"/>
      <stop offset="100%" stop-color="#0f172a"/>
    </linearGradient>
  </defs>
  <rect width="1200" height="540" rx="18" fill="url(#bg)"/>
  <text x="60" y="70" fill="#dff0ff" font-size="42" font-weight="700" font-family="Trebuchet MS, Arial, sans-serif">Mossbrook Story Roadmap</text>
  <g font-family="Trebuchet MS, Arial, sans-serif" font-size="24" fill="#d5e6ff">
    <rect x="70" y="140" width="235" height="130" rx="18" fill="#1f3a61" stroke="#4b74a8"/>
    <text x="95" y="185">1) Missing Lantern</text>
    <text x="95" y="218" font-size="18">Town clues + team intro</text>

    <rect x="355" y="140" width="235" height="130" rx="18" fill="#244a5f" stroke="#4c8ca9"/>
    <text x="381" y="185">2) Forest Trail</text>
    <text x="381" y="218" font-size="18">Skill checks + choices</text>

    <rect x="640" y="140" width="235" height="130" rx="18" fill="#3a4266" stroke="#7182ba"/>
    <text x="668" y="185">3) Cave Puzzle</text>
    <text x="668" y="218" font-size="18">Rune door + goblin kids</text>

    <rect x="925" y="140" width="205" height="130" rx="18" fill="#4a3e5f" stroke="#9a79bf"/>
    <text x="948" y="185">4) Big Choice</text>
    <text x="948" y="218" font-size="18">Talk, trade, or fight</text>

    <rect x="420" y="334" width="360" height="130" rx="18" fill="#3f5a34" stroke="#7fb07a"/>
    <text x="456" y="378">5) Festival Ending</text>
    <text x="456" y="411" font-size="18">Rewards + next quest hook</text>
  </g>
  <g stroke="#9fc4ec" stroke-width="6" fill="none" stroke-linecap="round">
    <path d="M305 205 L355 205"/>
    <path d="M590 205 L640 205"/>
    <path d="M875 205 L925 205"/>
    <path d="M1028 270 C1028 320, 820 340, 780 360"/>
    <path d="M550 270 C550 320, 560 334, 560 334"/>
  </g>
</svg>
